<mxfile host="Electron" modified="2023-06-08T00:57:03.274Z" agent="Mozilla/5.0 (Macintosh; Intel Mac OS X 10_15_7) AppleWebKit/537.36 (KHTML, like Gecko) draw.io/21.2.8 Chrome/112.0.5615.165 Electron/24.2.0 Safari/537.36" etag="xv1qaHptjBit1ne4fYIq" version="21.2.8" type="device">
  <diagram name="Page-1" id="xLLta4FP_bZa6TBjcX8z">
    <mxGraphModel dx="1306" dy="894" grid="1" gridSize="10" guides="1" tooltips="1" connect="1" arrows="1" fold="1" page="1" pageScale="1" pageWidth="850" pageHeight="1100" math="0" shadow="0">
      <root>
        <mxCell id="0" />
        <mxCell id="1" parent="0" />
        <mxCell id="nBQPMGXqiijHeDV5lrD2-1" value="" style="rounded=1;whiteSpace=wrap;html=1;arcSize=5;fontFamily=SF Mono;fillColor=#fff2cc;strokeColor=#d6b656;" vertex="1" parent="1">
          <mxGeometry x="320" y="190" width="40" height="30" as="geometry" />
        </mxCell>
        <mxCell id="nBQPMGXqiijHeDV5lrD2-3" value="var i" style="text;html=1;strokeColor=none;fillColor=none;align=center;verticalAlign=middle;whiteSpace=wrap;rounded=0;fontFamily=SF Mono;" vertex="1" parent="1">
          <mxGeometry x="170" y="190" width="60" height="30" as="geometry" />
        </mxCell>
        <mxCell id="nBQPMGXqiijHeDV5lrD2-4" value="" style="endArrow=classic;html=1;rounded=0;exitX=1;exitY=0.5;exitDx=0;exitDy=0;entryX=0;entryY=0.5;entryDx=0;entryDy=0;" edge="1" parent="1" source="nBQPMGXqiijHeDV5lrD2-3" target="nBQPMGXqiijHeDV5lrD2-1">
          <mxGeometry width="50" height="50" relative="1" as="geometry">
            <mxPoint x="400" y="480" as="sourcePoint" />
            <mxPoint x="450" y="430" as="targetPoint" />
          </mxGeometry>
        </mxCell>
        <mxCell id="nBQPMGXqiijHeDV5lrD2-8" value="" style="rounded=1;whiteSpace=wrap;html=1;arcSize=5;fontFamily=SF Mono;dashed=1;fillColor=#f5f5f5;fontColor=#333333;strokeColor=#666666;" vertex="1" parent="1">
          <mxGeometry x="400" y="240" width="160" height="100" as="geometry" />
        </mxCell>
        <mxCell id="nBQPMGXqiijHeDV5lrD2-5" value="closure" style="text;html=1;strokeColor=none;fillColor=none;align=center;verticalAlign=middle;whiteSpace=wrap;rounded=0;fontFamily=SF Mono;" vertex="1" parent="1">
          <mxGeometry x="400" y="240" width="70" height="30" as="geometry" />
        </mxCell>
        <mxCell id="nBQPMGXqiijHeDV5lrD2-10" value="i" style="text;html=1;strokeColor=none;fillColor=none;align=center;verticalAlign=middle;whiteSpace=wrap;rounded=0;fontFamily=SF Mono;" vertex="1" parent="1">
          <mxGeometry x="420" y="290" width="30" height="30" as="geometry" />
        </mxCell>
        <mxCell id="nBQPMGXqiijHeDV5lrD2-11" value="" style="endArrow=classic;html=1;rounded=0;exitX=0;exitY=0.5;exitDx=0;exitDy=0;entryX=0.5;entryY=1;entryDx=0;entryDy=0;" edge="1" parent="1" source="nBQPMGXqiijHeDV5lrD2-10" target="nBQPMGXqiijHeDV5lrD2-1">
          <mxGeometry width="50" height="50" relative="1" as="geometry">
            <mxPoint x="400" y="470" as="sourcePoint" />
            <mxPoint x="450" y="420" as="targetPoint" />
            <Array as="points">
              <mxPoint x="340" y="305" />
            </Array>
          </mxGeometry>
        </mxCell>
      </root>
    </mxGraphModel>
  </diagram>
</mxfile>
